# xmcd CD database file
#
# Track frame offsets:
#	220
#	12125
#	25297
#	38435
#	51157
#	63905
#	77262
#	87797
#	99700
#	113200
#	127237
#	140527
#	152732
#	164907
#	176250
#	189085
#	202832
#	216100
#	226917
#	238695
#	250297
#	262022
#
# Disc length: 3623 seconds
#
# Revision: 0
# Processed by: cddbd v1.4PL0 Copyright (c) Steve Scherf et al.
# Submitted via: Feurio! 1.64.2ß - http://www.feurio.com
#
DISCID=210e2516
DTITLE=Various Artist - The Blues Came Down From Memphis
DYEAR=1900
DGENRE=blues
TTITLE0=Joe Hill Louis - We All Gotta Go Sometime
TTITLE1=Joe Hill Louis - She May Be Yours
TTITLE2=Joe Hill Louis - Keep Your Arms Around Me
TTITLE3=Rufus Thomas - Tiger Man
TTITLE4=Dr. Ross - Come Back Baby
TTITLE5=Dr. Ross - That Ain't Right
TTITLE6=Jimme DeBerry - Take A Little Chance
TTITLE7=Hot Shot Love - Wolf Call Boogie
TTITLE8=Jimmy DeBerry and Wlater Horton - Easy
TTITLE9=Walter Horton - West Winds Are Blowing
TTITLE10=Walter Horton - Walter's Instrumental
TTITLE11=Willie Nix - Seems Like A Million Years
TTITLE12=Willie Nix - Baker Shop Boogie
TTITLE13=Willie Nix - Take A Little Walk With Me
TTITLE14=Rufus Thomas - Bear Cat
TTITLE15=James Cotton - Cotton Crop Blues
TTITLE16=Little Junior's Blue Flames - Feelin' Good
TTITLE17=Little Junior's Blue Flames - Mystery Train
TTITLE18=Little Junior's Blue Flames - Love My Baby
TTITLE19=Houston Boines - Carry My Business On
TTITLE20=Sammy Lewis - I Feel So Worried
TTITLE21=Willie Johnson - So Long Baby Goodbye
EXTD=
EXTT0=
EXTT1=
EXTT2=
EXTT3=
EXTT4=
EXTT5=
EXTT6=
EXTT7=
EXTT8=
EXTT9=
EXTT10=
EXTT11=
EXTT12=
EXTT13=
EXTT14=
EXTT15=
EXTT16=
EXTT17=
EXTT18=
EXTT19=
EXTT20=
EXTT21=
PLAYORDER=
